<svg width="1340" height="880" viewBox="0 0 1340 880" fill="none" xmlns="http://www.w3.org/2000/svg">
<g clip-path="url(#clip0_2020_194306)">
<rect y="0.000488281" width="1340" height="880" fill="#FCFCFC"/>
<path fill-rule="evenodd" clip-rule="evenodd" d="M-225.924 268.632C-218.612 119.488 -65.2958 -6.38233 70.0951 -119.88C180.004 -212.016 323.394 -269.742 472.763 -317.072C602.047 -358.038 735.648 -369.938 872.845 -374.245C1015.82 -378.732 1168.34 -397.015 1287.91 -342.656C1409.53 -287.366 1473.35 -182.522 1520.58 -79.7732C1566.56 20.2413 1569.48 127.059 1553.48 235.06C1536.15 352.047 1521.04 475.107 1424.3 570.268C1323.82 669.112 1175.34 754.628 1016.06 763.73C861.395 772.568 768.198 632.907 616.594 616.423C421.571 595.219 202.555 727.133 32.022 656.737C-138.385 586.393 -233.368 420.479 -225.924 268.632Z" fill="#E1F2FF"/>
</g>
<defs>
<clipPath id="clip0_2020_194306">
<rect width="1340" height="892" fill="white"/>
</clipPath>
</defs>
</svg>
