<svg width="82" height="106" viewBox="0 0 82 106" fill="none" xmlns="http://www.w3.org/2000/svg">
<g filter="url(#filter0_d_2010_194361)">
<circle cx="30" cy="39" r="18" fill="white"/>
</g>
<path d="M29.732 3.25603C29.6295 3.29709 29.2809 3.37921 28.9734 3.4408C28.1738 3.62557 27.1487 4.56994 26.7182 5.55537C26.3901 6.29444 26.3491 6.91034 26.3696 9.86663C26.3901 12.6587 26.4516 13.3772 26.7182 13.6852C27.0052 14.0136 28.0098 14.0342 42.5663 14.0342L58.0083 13.8966L58.2753 13.763L58.5169 13.5004C58.9429 12.9612 58.9474 12.6792 58.9474 10.0925C58.9474 6.78716 58.7424 5.76067 57.8813 4.71365C56.6102 3.17391 57.4713 3.25603 42.9558 3.21497C35.8006 3.19444 29.855 3.21497 29.732 3.25603ZM56.2726 5.82226C56.2726 5.82226 56.2822 6.99246 56.2822 9.04544V11.3653H54.7035C53.8219 11.3858 47.9173 11.3858 41.6027 11.3858C30.4085 11.3653 29.5696 11.3578 29.5696 11.3578H28.7685L28.7684 10.462V10.2156L28.7685 8.95261V8.41813V7.61641V5.82226H29.855H42.6483H55.4416H56.2726Z" fill="white"/>
<path d="M14.8774 8.45842C14.3033 8.74584 13.7702 9.21803 13.4012 9.83392L12.8066 10.7578V17.1631V23.5684L14.0368 22.3982L15.2669 21.2074V16.4035C15.2874 11.2299 15.3079 11.0862 16.374 10.6756C16.6815 10.573 18.4037 10.4703 20.2079 10.4703H23.4677V9.23856V8.00677H19.6338C16.087 8.00677 15.6974 8.04783 14.8774 8.45842Z" fill="white"/>
<g filter="url(#filter1_d_2010_194361)">
<path d="M61.6016 9.21808V10.4293L65.3125 10.5115C68.9209 10.5731 69.0234 10.5936 69.4129 11.0658C69.8025 11.5379 69.8025 12.4413 69.8025 49.0048C69.8025 75.0161 69.741 86.5744 69.5769 86.8618C69.4744 87.0876 69.1464 87.3545 68.8594 87.4572C68.5928 87.5598 65.2305 87.6625 61.4171 87.683C56.2916 87.683 54.4259 87.7651 54.3439 87.9293C54.2824 88.1141 54.2414 88.1141 54.2414 87.9293C54.2209 87.7446 50.4485 87.683 38.4958 87.6419C23.2217 87.5803 18.4447 87.5393 16.8456 87.4777C16.3945 87.4777 15.923 87.2929 15.6769 87.0466C15.2669 86.636 15.2669 86.3691 15.2669 71.2797V55.9234L14.0368 54.7121L12.8066 53.5009V70.3764C12.8066 86.5538 12.8271 87.2929 13.1962 88.032C13.6472 88.8942 14.0573 89.3048 15.0619 89.8386C15.7589 90.2081 16.8251 90.2287 42.0221 90.2697C59.8589 90.3108 68.5723 90.2492 69.2079 90.1055C70.274 89.8591 71.4836 88.9558 72.0167 88.0115C72.3447 87.3956 72.3652 84.973 72.3652 49.2717C72.3652 28.3313 72.3037 10.9426 72.2217 10.6346C71.9962 9.8545 71.1146 8.86907 70.192 8.41742C69.4949 8.04788 68.9824 8.00682 65.497 8.00682H61.6016V9.21808Z" fill="white"/>
</g>
<path d="M25.518 19.3442C21.7046 20.1654 18.1577 22.1568 15.4719 25.0104C11.4125 29.2806 9.52633 34.8237 10.1414 40.6336C10.982 48.6402 16.4765 55.1892 24.2878 57.5091C25.4975 57.8786 26.5021 57.9813 29.1058 58.0634C32.1196 58.1455 32.5502 58.1045 34.4364 57.6323C35.564 57.3449 37.3272 56.6879 38.3318 56.1952L40.177 55.2714L41.3046 56.38L42.4117 57.4886L41.8581 58.0839C41.5506 58.3919 41.3046 58.8846 41.3046 59.172C41.3046 59.6031 43.1293 61.5329 50.1205 68.4925C54.959 73.3376 59.2029 77.4641 59.5309 77.6899C60.269 78.1416 60.8636 78.0184 61.3146 77.3204C61.7862 76.6018 61.5196 76.068 59.982 74.5694C59.2439 73.8508 56.7016 71.3667 54.3439 69.0263C51.9862 66.7065 50.223 65.0846 50.223 65.0846L49.9155 64.8421L49.9154 64.8382C49.9154 64.8382 48.6853 63.3601 47.2092 61.8614L44.4824 59.131L47.1477 56.5853L49.8129 54.0396L52.5807 56.7495C54.0979 58.2276 55.4305 59.5826 55.574 59.7469C55.574 59.7469 57.0707 61.2045 57.6447 61.2045C58.3008 61.2045 58.9364 60.6091 58.9364 59.9932C58.9364 59.521 58.1983 58.6793 54.7334 55.2303C52.4167 52.931 50.346 50.9806 50.1615 50.919C49.7514 50.7753 49.3209 50.8985 48.8288 51.3091C48.5008 51.5965 48.3778 51.5349 47.3527 50.529C46.7376 49.9131 46.2251 49.3382 46.2251 49.2561C46.2251 49.1535 46.4506 48.7429 46.7171 48.3118C47.5577 46.9773 48.6443 43.9184 48.9724 41.927C50.469 33.0171 46.0406 24.5793 37.7987 20.6581C35.4615 19.5495 33.4113 19.0978 30.2334 18.9952C27.9782 18.9336 27.1171 18.9952 25.518 19.3442ZM34.4364 22.1978C39.9514 23.9429 44.0313 27.9257 45.856 33.3661C46.6761 35.8091 46.8811 39.5045 46.3276 41.9886C45.446 46.0124 43.1088 49.7283 40.0129 52.0892C38.4138 53.3005 35.523 54.676 33.5138 55.1687C31.115 55.7641 27.3837 55.682 25.0464 54.9634C19.4903 53.28 15.4924 49.5025 13.6062 44.1647C10.2029 34.5568 16.1075 24.025 26.133 21.8694C28.1627 21.4382 32.5912 21.623 34.4364 22.1978ZM45.61 52.4793L46.5121 53.4031L45.4255 54.5118L44.3184 55.6204L43.4368 54.7376C42.9447 54.2654 42.5347 53.7727 42.5347 53.6906C42.5347 53.5058 44.4004 51.5555 44.5849 51.5555C44.6464 51.5555 45.118 51.9661 45.61 52.4793Z" fill="white"/>
<path d="M31.4022 37.6723C28.9419 39.7664 26.8712 41.4703 26.8302 41.4703C26.7072 41.4703 23.6934 39.0068 23.5704 38.8015C23.3654 38.4525 22.3197 38.5756 21.9712 38.9657C21.5612 39.4174 21.5202 40.2385 21.8892 40.6902C22.0122 40.875 23.0578 41.8193 24.1649 42.7842C25.6821 44.0981 26.3382 44.5498 26.7687 44.5498C27.2197 44.5498 28.3884 43.667 32.1197 40.526C34.744 38.3087 37.1018 36.2763 37.3683 35.9889C37.9218 35.373 37.9423 34.8187 37.4093 34.2849C36.5482 33.4227 36.1382 33.6485 31.4022 37.6723Z" fill="#0079C2"/>
<path d="M52.0889 39.5407C51.8429 41.45 51.3303 41.2857 56.8454 41.2652C60.2077 41.2447 61.8889 41.1626 62.2374 40.9983C62.873 40.6699 63.0165 39.5612 62.504 38.9864C62.1759 38.6169 61.8069 38.5963 57.1939 38.5963H52.2324L52.0889 39.5407Z" fill="white"/>
<path d="M60.6995 62.8005C60.1665 63.3959 60.3305 64.484 61.048 64.8741C61.5401 65.1409 61.6631 65.1409 62.1757 64.8741C63.3033 64.2376 62.8727 62.4105 61.6016 62.4105C61.2941 62.4105 60.884 62.5952 60.6995 62.8005Z" fill="white"/>
<path d="M20.3933 66.3319C20.0448 66.7219 20.0038 67.1941 19.9423 72.0391C19.9013 74.9338 19.9423 77.5822 20.0038 77.9517C20.2498 79.2656 20.1473 79.2451 26.7285 79.2451C30.0293 79.2451 32.8176 79.163 32.9406 79.0809C33.5557 78.6703 33.6377 77.9517 33.6377 72.5729C33.6377 67.1941 33.5557 66.4756 32.9406 66.065C32.8176 65.9828 30.0293 65.9007 26.749 65.9007C20.9469 65.9007 20.7829 65.9213 20.3933 66.3319ZM30.8699 69.3703C30.8699 71.3535 30.8084 70.3886 29.3938 71.3535C28.6147 71.9078 27.5564 73.3373 27.4334 73.3578C27.3104 73.3783 26.6318 72.0418 26.3653 71.7544C25.7681 71.1104 24.4961 70.9526 25.0301 72.4225C26.2318 74.4268 24.8218 72.113 26.0982 74.1595C27.2999 75.8966 27.7004 75.2285 29.3026 74.0259C30.8813 72.9584 30.8699 70.6854 30.8699 74.8627V76.6789H26.7695H22.6691L22.6076 72.7782C22.5871 70.6431 22.6076 68.7749 22.6691 68.6312C22.7306 68.4054 23.6327 68.3643 26.8105 68.4054L30.8699 68.467V69.3703Z" fill="white"/>
<path d="M38.9878 68.9393C38.5778 69.391 38.5368 70.4791 38.9058 70.787C39.1928 71.0334 48.6853 71.2387 48.6853 70.9923C48.6853 70.9307 48.1112 70.3559 47.4142 69.7195L46.1635 68.5698H42.7397C39.6849 68.5698 39.2748 68.6108 38.9878 68.9393Z" fill="white"/>
<path d="M39.2542 74.1742C38.5982 74.5027 38.4341 75.6113 38.9672 76.1861C39.2952 76.5556 39.7053 76.5762 46.8195 76.5762H54.3233L52.9701 75.2417L51.5965 73.9073H45.6919C41.3454 73.9073 39.6233 73.9894 39.2542 74.1742Z" fill="white"/>
<path d="M52.0874 34.0827C51.8414 35.992 51.3289 35.8277 56.8439 35.8072C60.2063 35.7867 61.8874 35.7046 62.236 35.5403C62.8715 35.2118 63.015 34.1032 62.5025 33.5284C62.1745 33.1589 61.8054 33.1383 57.1925 33.1383H52.2309L52.0874 34.0827Z" fill="white"/>
<path d="M29.732 3.25603C29.6295 3.29709 29.2809 3.37921 28.9734 3.4408C28.1738 3.62557 27.1487 4.56994 26.7182 5.55537C26.3901 6.29444 26.3491 6.91034 26.3696 9.86663C26.3901 12.6587 26.4516 13.3772 26.7182 13.6852C27.0052 14.0136 28.0098 14.0342 42.5663 14.0342L58.0083 13.8966L58.2753 13.763L58.5169 13.5004C58.9429 12.9612 58.9474 12.6792 58.9474 10.0925C58.9474 6.78716 58.7424 5.76067 57.8813 4.71365C56.6102 3.17391 57.4713 3.25603 42.9558 3.21497C35.8006 3.19444 29.855 3.21497 29.732 3.25603ZM56.2726 5.82226C56.2726 5.82226 56.2822 6.99246 56.2822 9.04544V11.3653H54.7035C53.8219 11.3858 47.9173 11.3858 41.6027 11.3858C30.4085 11.3653 29.5696 11.3578 29.5696 11.3578H28.7685L28.7684 10.462V10.2156L28.7685 8.95261V8.41813V7.61641V5.82226H29.855H42.6483H55.4416H56.2726Z" fill="white"/>
<path d="M14.8774 8.45842C14.3033 8.74584 13.7702 9.21803 13.4012 9.83392L12.8066 10.7578V17.1631V23.5684L14.0368 22.3982L15.2669 21.2074V16.4035C15.2874 11.2299 15.3079 11.0862 16.374 10.6756C16.6815 10.573 18.4037 10.4703 20.2079 10.4703H23.4677V9.23856V8.00677H19.6338C16.087 8.00677 15.6974 8.04783 14.8774 8.45842Z" fill="white"/>
<g filter="url(#filter2_d_2010_194361)">
<path d="M61.6016 9.21808V10.4293L65.3125 10.5115C68.9209 10.573 69.0234 10.5936 69.4129 11.0658C69.8025 11.538 69.8025 12.4413 69.8025 49.0048C69.8025 75.0161 69.741 86.5744 69.5769 86.8618C69.4744 87.0876 69.1464 87.3545 68.8594 87.4572C68.5928 87.5598 65.2305 87.6625 61.4171 87.683C56.2916 87.683 54.4259 87.7651 54.3439 87.9293C54.2824 88.1141 54.2414 88.1141 54.2414 87.9293C54.2209 87.7446 50.4485 87.683 38.4958 87.6419C23.2217 87.5803 18.4447 87.5393 16.8456 87.4777C16.3945 87.4777 15.923 87.2929 15.6769 87.0466C15.2669 86.636 15.2669 86.3691 15.2669 71.2797V55.9234L14.0368 54.7121L12.8066 53.5009V70.3764C12.8066 86.5538 12.8271 87.2929 13.1962 88.032C13.6472 88.8942 14.0573 89.3048 15.0619 89.8386C15.7589 90.2081 16.8251 90.2287 42.0221 90.2697C59.8589 90.3108 68.5723 90.2492 69.2079 90.1055C70.274 89.8591 71.4836 88.9558 72.0167 88.0115C72.3447 87.3956 72.3652 84.973 72.3652 49.2717C72.3652 28.3313 72.3037 10.9426 72.2217 10.6346C71.9962 9.8545 71.1146 8.86908 70.192 8.41742C69.4949 8.04788 68.9824 8.00682 65.497 8.00682H61.6016V9.21808Z" fill="white"/>
</g>
<path d="M25.518 19.3442C21.7046 20.1654 18.1577 22.1568 15.4719 25.0104C11.4125 29.2806 9.52633 34.8237 10.1414 40.6336C10.982 48.6402 16.4765 55.1892 24.2878 57.5091C25.4975 57.8786 26.5021 57.9813 29.1058 58.0634C32.1196 58.1455 32.5502 58.1045 34.4364 57.6323C35.564 57.3449 37.3272 56.6879 38.3318 56.1952L40.177 55.2714L41.3046 56.38L42.4117 57.4886L41.8581 58.0839C41.5506 58.3919 41.3046 58.8846 41.3046 59.172C41.3046 59.6031 43.1293 61.5329 50.1205 68.4925C54.959 73.3376 59.2029 77.4641 59.5309 77.6899C60.269 78.1416 60.8636 78.0184 61.3146 77.3204C61.7862 76.6018 61.5196 76.068 59.982 74.5694C59.2439 73.8508 56.7016 71.3667 54.3439 69.0263C51.9862 66.7065 50.223 65.0846 50.223 65.0846L49.9155 64.8421L49.9154 64.8382C49.9154 64.8382 48.6853 63.3601 47.2092 61.8614L44.4824 59.131L47.1477 56.5853L49.8129 54.0396L52.5807 56.7495C54.0979 58.2276 55.4305 59.5826 55.574 59.7469C55.574 59.7469 57.0707 61.2045 57.6447 61.2045C58.3008 61.2045 58.9364 60.6091 58.9364 59.9932C58.9364 59.521 58.1983 58.6793 54.7334 55.2303C52.4167 52.931 50.346 50.9806 50.1615 50.919C49.7514 50.7753 49.3209 50.8985 48.8288 51.3091C48.5008 51.5965 48.3778 51.5349 47.3527 50.529C46.7376 49.9131 46.2251 49.3382 46.2251 49.2561C46.2251 49.1535 46.4506 48.7429 46.7171 48.3118C47.5577 46.9773 48.6443 43.9184 48.9724 41.927C50.469 33.0171 46.0406 24.5793 37.7987 20.6581C35.4615 19.5495 33.4113 19.0978 30.2334 18.9952C27.9782 18.9336 27.1171 18.9952 25.518 19.3442ZM34.4364 22.1978C39.9514 23.9429 44.0313 27.9257 45.856 33.3661C46.6761 35.8091 46.8811 39.5045 46.3276 41.9886C45.446 46.0124 43.1088 49.7283 40.0129 52.0892C38.4138 53.3005 35.523 54.676 33.5138 55.1687C31.115 55.7641 27.3837 55.682 25.0464 54.9634C19.4903 53.28 15.4924 49.5025 13.6062 44.1647C10.2029 34.5568 16.1075 24.025 26.133 21.8694C28.1627 21.4382 32.5912 21.623 34.4364 22.1978ZM45.61 52.4793L46.5121 53.4031L45.4255 54.5118L44.3184 55.6204L43.4368 54.7376C42.9447 54.2654 42.5347 53.7727 42.5347 53.6906C42.5347 53.5058 44.4004 51.5555 44.5849 51.5555C44.6464 51.5555 45.118 51.9661 45.61 52.4793Z" fill="white"/>
<path d="M31.4022 37.6723C28.9419 39.7664 26.8712 41.4703 26.8302 41.4703C26.7072 41.4703 23.6934 39.0068 23.5704 38.8015C23.3654 38.4525 22.3197 38.5756 21.9712 38.9657C21.5612 39.4174 21.5202 40.2385 21.8892 40.6902C22.0122 40.875 23.0578 41.8193 24.1649 42.7842C25.6821 44.0981 26.3382 44.5498 26.7687 44.5498C27.2197 44.5498 28.3884 43.667 32.1197 40.526C34.744 38.3087 37.1018 36.2763 37.3683 35.9889C37.9218 35.373 37.9423 34.8187 37.4093 34.2849C36.5482 33.4227 36.1382 33.6485 31.4022 37.6723Z" fill="#0079C2"/>
<path d="M52.0889 39.5407C51.8429 41.45 51.3303 41.2857 56.8454 41.2652C60.2077 41.2447 61.8889 41.1626 62.2374 40.9983C62.873 40.6699 63.0165 39.5612 62.504 38.9864C62.1759 38.6169 61.8069 38.5963 57.1939 38.5963H52.2324L52.0889 39.5407Z" fill="white"/>
<path d="M60.6995 62.8005C60.1665 63.3959 60.3305 64.484 61.048 64.8741C61.5401 65.1409 61.6631 65.1409 62.1757 64.8741C63.3033 64.2376 62.8727 62.4105 61.6016 62.4105C61.2941 62.4105 60.884 62.5952 60.6995 62.8005Z" fill="white"/>
<path d="M20.3933 66.3319C20.0448 66.7219 20.0038 67.1941 19.9423 72.0391C19.9013 74.9338 19.9423 77.5822 20.0038 77.9517C20.2498 79.2656 20.1473 79.2451 26.7285 79.2451C30.0293 79.2451 32.8176 79.163 32.9406 79.0809C33.5557 78.6703 33.6377 77.9517 33.6377 72.5729C33.6377 67.1941 33.5557 66.4756 32.9406 66.065C32.8176 65.9828 30.0293 65.9007 26.749 65.9007C20.9469 65.9007 20.7829 65.9213 20.3933 66.3319ZM30.8699 69.3703C30.8699 71.3535 30.8084 70.3886 29.3938 71.3535C28.6147 71.9078 27.5564 73.3373 27.4334 73.3578C27.3104 73.3783 26.6318 72.0418 26.3653 71.7544C25.7681 71.1104 24.4961 70.9526 25.0301 72.4225C26.2318 74.4268 24.8218 72.113 26.0982 74.1595C27.2999 75.8966 27.7004 75.2285 29.3026 74.0259C30.8813 72.9584 30.8699 70.6854 30.8699 74.8627V76.6789H26.7695H22.6691L22.6076 72.7782C22.5871 70.6431 22.6076 68.7749 22.6691 68.6312C22.7306 68.4054 23.6327 68.3643 26.8105 68.4054L30.8699 68.467V69.3703Z" fill="white"/>
<path d="M38.9878 68.9393C38.5778 69.391 38.5368 70.4791 38.9058 70.787C39.1928 71.0334 48.6853 71.2387 48.6853 70.9923C48.6853 70.9307 48.1112 70.3559 47.4142 69.7195L46.1635 68.5698H42.7397C39.6849 68.5698 39.2748 68.6108 38.9878 68.9393Z" fill="white"/>
<path d="M39.2542 74.1742C38.5982 74.5027 38.4341 75.6113 38.9672 76.1861C39.2952 76.5556 39.7053 76.5762 46.8195 76.5762H54.3233L52.9701 75.2417L51.5965 73.9073H45.6919C41.3454 73.9073 39.6233 73.9894 39.2542 74.1742Z" fill="white"/>
<path d="M52.0874 34.0827C51.8414 35.992 51.3289 35.8277 56.8439 35.8072C60.2063 35.7867 61.8874 35.7046 62.236 35.5403C62.8715 35.2118 63.015 34.1032 62.5025 33.5284C62.1745 33.1589 61.8054 33.1383 57.1925 33.1383H52.2309L52.0874 34.0827Z" fill="white"/>
<defs>
<filter id="filter0_d_2010_194361" x="10" y="21" width="44" height="44" filterUnits="userSpaceOnUse" color-interpolation-filters="sRGB">
<feFlood flood-opacity="0" result="BackgroundImageFix"/>
<feColorMatrix in="SourceAlpha" type="matrix" values="0 0 0 0 0 0 0 0 0 0 0 0 0 0 0 0 0 0 127 0" result="hardAlpha"/>
<feOffset dx="2" dy="4"/>
<feGaussianBlur stdDeviation="2"/>
<feComposite in2="hardAlpha" operator="out"/>
<feColorMatrix type="matrix" values="0 0 0 0 0 0 0 0 0 0 0 0 0 0 0 0 0 0 0.25 0"/>
<feBlend mode="normal" in2="BackgroundImageFix" result="effect1_dropShadow_2010_194361"/>
<feBlend mode="normal" in="SourceGraphic" in2="effect1_dropShadow_2010_194361" result="shape"/>
</filter>
<filter id="filter1_d_2010_194361" x="11.8066" y="8.00684" width="65.5586" height="89.2754" filterUnits="userSpaceOnUse" color-interpolation-filters="sRGB">
<feFlood flood-opacity="0" result="BackgroundImageFix"/>
<feColorMatrix in="SourceAlpha" type="matrix" values="0 0 0 0 0 0 0 0 0 0 0 0 0 0 0 0 0 0 127 0" result="hardAlpha"/>
<feOffset dx="2" dy="4"/>
<feGaussianBlur stdDeviation="1.5"/>
<feComposite in2="hardAlpha" operator="out"/>
<feColorMatrix type="matrix" values="0 0 0 0 0 0 0 0 0 0 0 0 0 0 0 0 0 0 0.25 0"/>
<feBlend mode="normal" in2="BackgroundImageFix" result="effect1_dropShadow_2010_194361"/>
<feBlend mode="normal" in="SourceGraphic" in2="effect1_dropShadow_2010_194361" result="shape"/>
</filter>
<filter id="filter2_d_2010_194361" x="11.8066" y="8.00684" width="65.5586" height="89.2754" filterUnits="userSpaceOnUse" color-interpolation-filters="sRGB">
<feFlood flood-opacity="0" result="BackgroundImageFix"/>
<feColorMatrix in="SourceAlpha" type="matrix" values="0 0 0 0 0 0 0 0 0 0 0 0 0 0 0 0 0 0 127 0" result="hardAlpha"/>
<feOffset dx="2" dy="4"/>
<feGaussianBlur stdDeviation="1.5"/>
<feComposite in2="hardAlpha" operator="out"/>
<feColorMatrix type="matrix" values="0 0 0 0 0 0 0 0 0 0 0 0 0 0 0 0 0 0 0.25 0"/>
<feBlend mode="normal" in2="BackgroundImageFix" result="effect1_dropShadow_2010_194361"/>
<feBlend mode="normal" in="SourceGraphic" in2="effect1_dropShadow_2010_194361" result="shape"/>
</filter>
</defs>
</svg>
